# xmcd
#
# Track frame offsets:
#	183
#	19070
#	30098
#	48680
#	60680
#	69148
#	89500
#	110435
#	125420
#	138613
#	154260
#	163665
#
# Disc length: 2526 seconds
#
# Revision: 0
# Processed by: cddbd v1.5.2PL0 Copyright (c) Steve Scherf et al.
# Submitted via: EasyCDDAExtractor 15.2.5.1
#
DISCID=9d09dc0c
DTITLE=喜多郎 - Silk Road
DYEAR=1980
DGENRE=Acid
TTITLE0=Silk Road Theme
TTITLE1=Bell Tower
TTITLE2=Heavenly Father
TTITLE3=The Great River
TTITLE4=The Great Wall of China
TTITLE5=Flying Celestial Nymphs
TTITLE6=Silk Road Fantasy
TTITLE7=Shimmering Light
TTITLE8=Westbound
TTITLE9=Time
TTITLE10=Bodhisattva
TTITLE11=Everlasting Road
EXTD=
EXTT0=
EXTT1=
EXTT2=
EXTT3=
EXTT4=
EXTT5=
EXTT6=
EXTT7=
EXTT8=
EXTT9=
EXTT10=
EXTT11=
PLAYORDER=
